<svg id="Layer_1" data-name="Layer 1" xmlns="http://www.w3.org/2000/svg" viewBox="0 0 513.14 480">
    <defs>
        <style>
            .cls-1 {
                fill: #fffb24;
            }

            .cls-1,
            .cls-2 {
                stroke: #000;
                stroke-miterlimit: 10;
                stroke-width: 5px;
            }

            .cls-2 {
                fill: none;
            }
        </style>
    </defs>
    <path class="cls-1"
        d="M256.57,39.78h0C146,39.78,56.35,129.42,56.35,240h0c0,110.58,89.64,200.22,200.22,200.22h0c110.58,0,200.22-89.64,200.22-200.22h0C456.79,129.42,367.15,39.78,256.57,39.78Zm-72.3,105.37c16.38,0,29.67,16.19,29.67,36.16s-13.29,36.15-29.67,36.15-29.67-16.19-29.67-36.15S167.88,145.15,184.27,145.15ZM354.55,333.29a21,21,0,0,1-28.22,9.26c-23.61-11.93-46.89-17.9-70.18-17.9s-46.57,6-70.18,17.9A21,21,0,1,1,167,305.07c29.57-14.95,59.35-22.42,89.13-22.42s59.56,7.47,89.13,22.42A21,21,0,0,1,354.55,333.29Zm-25-115.83c-16.38,0-29.67-16.19-29.67-36.15s13.29-36.16,29.67-36.16,29.67,16.19,29.67,36.16S345.93,217.46,329.54,217.46Z" />
    <path
        d="M346.54,167.69a25.24,25.24,0,0,1,13,3.64,43.3,43.3,0,0,1,1.15,10c0,20-13.28,36.15-29.66,36.15a25.33,25.33,0,0,1-13-3.63,43.36,43.36,0,0,1-1.16-10C316.87,183.88,330.16,167.69,346.54,167.69Z" />
    <path
        d="M201.27,167.69a25.24,25.24,0,0,1,13,3.64,43.85,43.85,0,0,1,1.15,10c0,20-13.28,36.15-29.67,36.15a25.33,25.33,0,0,1-13-3.63,43.92,43.92,0,0,1-1.15-10C171.6,183.88,184.88,167.69,201.27,167.69Z" />
    <rect class="cls-2" x="134.27" y="131.31" width="100" height="100" />
    <rect class="cls-2" x="278.87" y="131.31" width="100" height="100" />
    <path class="cls-2" d="M234.27,194.19q22.29-13,44.6-.76" />
</svg>