<svg id="trash can" data-name="trask can" xmlns="http://www.w3.org/2000/svg" viewBox="0 0 513.14 480">
    <path class="cls-1"
        d="M413.62,92.72h0a84.44,84.44,0,0,0-77.7-51.38H177.22A84.42,84.42,0,0,0,99.53,92.72h0a27.6,27.6,0,0,0,25.4,38.41h1.75l16.4,293.37a18.73,18.73,0,0,0,18.69,17.68h189.6a18.72,18.72,0,0,0,18.69-17.68l16.4-293.37h1.76A27.61,27.61,0,0,0,413.62,92.72ZM200,396.33h0a18.73,18.73,0,0,1-18.71-18l-7-192.39A18.73,18.73,0,0,1,193,166.5h3.47a18.72,18.72,0,0,1,18.72,18.38l3.5,192.39A18.71,18.71,0,0,1,200,396.33Zm131.89-18a18.72,18.72,0,0,1-37.42-1L298,184.88a18.71,18.71,0,0,1,18.71-18.38h3.47a18.72,18.72,0,0,1,18.71,19.4Z" />
</svg>